<svg xmlns="http://www.w3.org/2000/svg" width="1900" height="700" viewBox="0 0 1900 700"><rect width="100%" height="100%" fill="#DDDDDD"/><path fill="#999999" d="M460.345 409.985h28.99v20.63h-89.2v-20.63h32.67v-93.99q0-5.58.34-11.49l-23.19 19.4q-2.01 1.57-3.96 1.96-1.95.39-3.68.05-1.73-.33-3.07-1.17-1.34-.84-2.01-1.84l-8.69-11.93 49.17-41.81h22.63v140.82Zm79.73-92.21q0 13.49 6.96 20.57 6.97 7.08 19.8 7.08 6.69 0 11.93-2.11 5.24-2.12 8.81-5.8 3.56-3.68 5.4-8.7 1.84-5.02 1.84-10.81 0-6.58-2-11.77-2.01-5.18-5.69-8.75-3.68-3.57-8.75-5.46-5.08-1.9-11.1-1.9-6.24 0-11.26 2.06-5.02 2.07-8.58 5.74-3.57 3.68-5.47 8.76-1.89 5.07-1.89 11.09Zm-13.5 112.84 50.07-62.55q1.89-2.34 3.57-4.57 1.67-2.23 3.23-4.46-5.58 3.56-12.27 5.4-6.69 1.84-14.04 1.84-8.37 0-16.39-2.89-8.03-2.9-14.28-8.76-6.24-5.85-10.09-14.49-3.84-8.64-3.84-20.24 0-10.81 4.01-20.29 4.01-9.48 11.26-16.62 7.25-7.13 17.4-11.26 10.14-4.12 22.41-4.12 12.37 0 22.24 3.9t16.84 10.93q6.97 7.02 10.7 16.83 3.74 9.82 3.74 21.52 0 7.47-1.29 14.16-1.28 6.69-3.62 12.88t-5.69 12.1q-3.34 5.91-7.47 11.71l-36.9 52.62q-1.9 2.68-5.69 4.52-3.79 1.84-8.58 1.84h-25.32Zm229.81-80.61q0 21.07-4.52 36.62-4.52 15.56-12.49 25.7-7.97 10.15-18.84 15.11-10.87 4.96-23.47 4.96t-23.36-4.96q-10.76-4.96-18.68-15.11-7.91-10.14-12.37-25.7-4.46-15.55-4.46-36.62 0-21.19 4.46-36.69 4.46-15.5 12.37-25.64 7.92-10.15 18.68-15.11 10.76-4.96 23.36-4.96t23.47 4.96q10.87 4.96 18.84 15.11 7.97 10.14 12.49 25.64 4.52 15.5 4.52 36.69Zm-28.44 0q0-17.51-2.56-28.99-2.57-11.49-6.86-18.29-4.29-6.8-9.87-9.53-5.57-2.74-11.59-2.74-5.91 0-11.43 2.74-5.52 2.73-9.76 9.53-4.23 6.8-6.74 18.29-2.51 11.48-2.51 28.99 0 17.5 2.51 28.99 2.51 11.48 6.74 18.28 4.24 6.8 9.76 9.53 5.52 2.74 11.43 2.74 6.02 0 11.59-2.74 5.58-2.73 9.87-9.53 4.29-6.8 6.86-18.28 2.56-11.49 2.56-28.99Zm157.78 0q0 21.07-4.52 36.62-4.52 15.56-12.49 25.7-7.97 10.15-18.84 15.11-10.87 4.96-23.47 4.96t-23.36-4.96q-10.76-4.96-18.68-15.11-7.91-10.14-12.37-25.7-4.46-15.55-4.46-36.62 0-21.19 4.46-36.69 4.46-15.5 12.37-25.64 7.92-10.15 18.68-15.11 10.76-4.96 23.36-4.96t23.47 4.96q10.87 4.96 18.84 15.11 7.97 10.14 12.49 25.64 4.52 15.5 4.52 36.69Zm-28.44 0q0-17.51-2.56-28.99-2.57-11.49-6.86-18.29-4.29-6.8-9.87-9.53-5.57-2.74-11.59-2.74-5.91 0-11.43 2.74-5.52 2.73-9.76 9.53-4.23 6.8-6.74 18.29-2.51 11.48-2.51 28.99 0 17.5 2.51 28.99 2.51 11.48 6.74 18.28 4.24 6.8 9.76 9.53 5.52 2.74 11.43 2.74 6.02 0 11.59-2.74 5.58-2.73 9.87-9.53 4.29-6.8 6.86-18.28 2.56-11.49 2.56-28.99Zm205.5 43.7-14.61 14.39-37.8-37.8-38.13 38.02-14.61-14.38 38.14-38.25-36.35-36.35 14.49-14.49 36.35 36.35 36.13-36.13 14.72 14.5-36.24 36.23 37.91 37.91Zm76.6-124.32h111.39v11.93q0 5.35-1.12 8.64-1.11 3.29-2.23 5.52l-61.1 125.77q-1.9 3.91-5.35 6.64-3.46 2.73-9.26 2.73h-19.95l62.32-123.21q2.12-3.79 4.18-6.97 2.07-3.17 4.63-6.07h-77.16q-2.56 0-4.46-1.9-1.89-1.89-1.89-4.46v-18.62Zm242.73 80.62q0 21.07-4.51 36.62-4.52 15.56-12.49 25.7-7.97 10.15-18.84 15.11-10.87 4.96-23.47 4.96t-23.36-4.96q-10.76-4.96-18.68-15.11-7.92-10.14-12.38-25.7-4.46-15.55-4.46-36.62 0-21.19 4.46-36.69 4.46-15.5 12.38-25.64 7.92-10.15 18.68-15.11 10.76-4.96 23.36-4.96t23.47 4.96q10.87 4.96 18.84 15.11 7.97 10.14 12.49 25.64 4.51 15.5 4.51 36.69Zm-28.43 0q0-17.51-2.56-28.99-2.57-11.49-6.86-18.29-4.29-6.8-9.87-9.53-5.57-2.74-11.59-2.74-5.91 0-11.43 2.74-5.52 2.73-9.76 9.53-4.24 6.8-6.74 18.29-2.51 11.48-2.51 28.99 0 17.5 2.51 28.99 2.5 11.48 6.74 18.28 4.24 6.8 9.76 9.53 5.52 2.74 11.43 2.74 6.02 0 11.59-2.74 5.58-2.73 9.87-9.53 4.29-6.8 6.86-18.28 2.56-11.49 2.56-28.99Zm157.77 0q0 21.07-4.51 36.62-4.52 15.56-12.49 25.7-7.97 10.15-18.84 15.11-10.87 4.96-23.47 4.96t-23.36-4.96q-10.76-4.96-18.68-15.11-7.92-10.14-12.38-25.7-4.46-15.55-4.46-36.62 0-21.19 4.46-36.69 4.46-15.5 12.38-25.64 7.92-10.15 18.68-15.11 10.76-4.96 23.36-4.96t23.47 4.96q10.87 4.96 18.84 15.11 7.97 10.14 12.49 25.64 4.51 15.5 4.51 36.69Zm-28.43 0q0-17.51-2.56-28.99-2.57-11.49-6.86-18.29-4.29-6.8-9.87-9.53-5.57-2.74-11.59-2.74-5.91 0-11.43 2.74-5.52 2.73-9.76 9.53-4.24 6.8-6.74 18.29-2.51 11.48-2.51 28.99 0 17.5 2.51 28.99 2.5 11.48 6.74 18.28 4.24 6.8 9.76 9.53 5.52 2.74 11.43 2.74 6.02 0 11.59-2.74 5.58-2.73 9.87-9.53 4.29-6.8 6.86-18.28 2.56-11.49 2.56-28.99Z"/></svg>